<svg xmlns="http://www.w3.org/2000/svg" version="1.1" xmlns:xlink="http://www.w3.org/1999/xlink" viewBox="0 0 200 200"><rect width="200" height="200" fill="url('#gradient')"></rect><defs><linearGradient id="gradient" gradientTransform="rotate(59 0.5 0.5)"><stop offset="0%" stop-color="#000000"></stop><stop offset="100%" stop-color="#8c3bcf"></stop></linearGradient></defs><g><g fill="#ffffff" transform="matrix(4.876190476190477,0,0,4.876190476190477,16.763115868114284,134.6497084072658)" stroke="#f1cde1" stroke-width="0"><path d="M10.03-8.30L10.03-5.66L4.50-5.66L4.50 0L1.07 0L1.07-14.22L10.59-14.22L10.59-11.57L4.50-11.57L4.50-8.30L10.03-8.30ZM20.45-8.79L15.74-2.54L20.56-2.54L20.56 0L11.58 0L11.58-1.84L16.27-8.03L11.79-8.03L11.79-10.57L20.45-10.57L20.45-8.79ZM29.64-3.78L29.64-3.78Q29.64-4.53 29.11-4.95Q28.57-5.37 27.24-5.82Q25.90-6.27 25.05-6.69L25.05-6.69Q22.29-8.05 22.29-10.42L22.29-10.42Q22.29-11.60 22.97-12.50Q23.66-13.41 24.92-13.91Q26.18-14.41 27.75-14.41L27.75-14.41Q29.29-14.41 30.50-13.87Q31.72-13.32 32.39-12.31Q33.07-11.30 33.07-10L33.07-10L29.65-10Q29.65-10.87 29.12-11.35Q28.58-11.83 27.68-11.83L27.68-11.83Q26.76-11.83 26.23-11.42Q25.69-11.02 25.69-10.39L25.69-10.39Q25.69-9.84 26.28-9.40Q26.87-8.96 28.34-8.48Q29.81-8.01 30.76-7.46L30.76-7.46Q33.07-6.13 33.07-3.80L33.07-3.80Q33.07-1.93 31.66-0.87Q30.25 0.20 27.80 0.20L27.80 0.20Q26.07 0.20 24.67-0.42Q23.27-1.04 22.56-2.12Q21.86-3.20 21.86-4.61L21.86-4.61L25.29-4.61Q25.29-3.47 25.88-2.92Q26.47-2.38 27.80-2.38L27.80-2.38Q28.65-2.38 29.15-2.75Q29.64-3.12 29.64-3.78Z"></path></g></g></svg>